<svg version="1.1" id="Layer_1" xmlns:x="ns_extend;" xmlns:i="ns_ai;" xmlns:graph="ns_graphs;" xmlns="http://www.w3.org/2000/svg" xmlns:xlink="http://www.w3.org/1999/xlink" x="0px" y="0px" viewBox="0 0 288 134.6" style="enable-background:new 0 0 288 134.6;" xml:space="preserve">
 <style type="text/css">
  .st0{fill:#1E3239;}
	.st1{fill:none;}
	.st2{fill:#00C55F;}
	.st3{fill:#0DC959;}
	.st4{fill:#1BCD52;}
	.st5{fill:#28D14C;}
	.st6{fill:#36D446;}
	.st7{fill:#43D83F;}
	.st8{fill:#50DC39;}
	.st9{fill:#5EE033;}
	.st10{fill:#6BE42C;}
	.st11{fill:#79E826;}
	.st12{fill:#86EC20;}
	.st13{fill:#93F019;}
	.st14{fill:#A1F313;}
	.st15{fill:#AEF70D;}
	.st16{fill:#BCFB06;}
	.st17{fill:#C8FF00;}
 </style>
 <metadata>
  <sfw xmlns="ns_sfw;">
   <slices>
   </slices>
   <sliceSourceBounds bottomLeftOrigin="true" height="134.6" width="288" x="33" y="33.1">
   </sliceSourceBounds>
  </sfw>
 </metadata>
 <g>
  <g>
   <path class="st0" d="M225.4,133.9c-0.5,0.2-1.1,0.4-1.7,0.5c-1,0.2-2.1,0.3-3.2,0.3c-3.6,0-6.3-0.9-7.9-2.8
			c-1.6-1.9-2.4-4.7-2.4-8.5l0.1-32.9l5.9,0v10.4h9.2v5.6h-9.2v16.1c0,2.6,0.5,4.3,1.4,5.3s2.3,1.5,4.2,1.5c0.9,0,1.7-0.1,2.4-0.2
			c0.4-0.1,0.8-0.2,1.2-0.4L225.4,133.9L225.4,133.9z">
   </path>
   <path class="st0" d="M27.2,117.1c0-9.8,6.4-17.6,17.2-17.6s17,7.8,17,17.6s-6.2,17.6-17.1,17.6S27.2,127.1,27.2,117.1z
			 M55.5,117.1c0-7.5-3.7-12.7-11.1-12.7s-11.2,5.4-11.2,12.7s3.6,12.6,11.1,12.6S55.5,124.4,55.5,117.1z">
   </path>
   <path class="st0" d="M64.9,117.1c0-9.8,6.4-17.6,17.2-17.6s17,7.8,17,17.6s-6.2,17.6-17.1,17.6S64.9,127.1,64.9,117.1L64.9,117.1z
			 M93.2,117.1c0-7.5-3.7-12.7-11.1-12.7s-11.2,5.4-11.2,12.7s3.6,12.6,11.1,12.6S93.2,124.4,93.2,117.1z">
   </path>
   <path class="st0" d="M132.9,117.1c0-9.8,6.4-17.6,17.2-17.6s17,7.8,17,17.6s-6.2,17.6-17.1,17.6S132.9,127.1,132.9,117.1z
			 M161.1,117.1c0-7.5-3.7-12.7-11.1-12.7c-7.4,0-11.2,5.4-11.2,12.7s3.6,12.6,11.1,12.6C157.5,129.7,161.1,124.4,161.1,117.1z">
   </path>
   <path class="st0" d="M203.7,133.8l-6.1,0l0-8.9c-2.3,6.3-6.9,9.6-12.7,9.6c-8.9,0-12.9-5.9-12.9-14.7l-0.1-19.1l6.1,0l0.1,17.5
			c0,6.6,2.2,11.2,9.1,11.1c6,0,10.3-4.9,10.3-13.9l0-14.8l6.1,0L203.7,133.8L203.7,133.8z">
   </path>
   <path class="st0" d="M118.9,117.2l15.5-16.4h-7.8c0,0-13.7,15.1-16.4,17.9L110,90.6h-6.1v43.2h6.1v-3.6c0-4.7,2.8-6.4,4.9-8.8
			c1.7,2,3.9,4.5,3.9,4.5l0,0l6.9,7.9h8.2L118.9,117.2L118.9,117.2z">
   </path>
   <polygon class="st0" points="6.4,90.5 0,90.5 0,133.9 26.2,133.9 26.2,128 6.4,128 		">
   </polygon>
  </g>
  <g>
   <polygon class="st1" points="278,71.7 269.6,71.7 269.7,71.7 		">
   </polygon>
   <path class="st2" d="M244.1,50.6c0-0.3,0-0.7,0-1.1V10.3c0-0.1,0-0.1,0-0.2V0c-0.1,0-0.3,0-0.4,0c-0.6,0-1.2,0-1.8,0v25.4
			l2.2,25.3l0,0.4v0.1C244.1,51,244.1,50.8,244.1,50.6z">
   </path>
   <path class="st2" d="M244.1,77.5l-0.2-3.6v0h-2v0l0,0v25.2c0.6,0,1.1,0,1.7,0c0.2,0,0.3,0,0.5,0L244.1,77.5L244.1,77.5z">
   </path>
   <path class="st3" d="M244.1,50.8l-2.2-25.3l-2.2-25.3c-0.7,0.1-1.5,0.1-2.2,0.2l2.2,25.6l4.4,25.3L244.1,50.8L244.1,50.8z">
   </path>
   <path class="st3" d="M246.3,77.5l-0.5-3.6v0h-1.9v0l0.2,3.6l1.4,21.6c0.7,0,1.5-0.1,2.2-0.1L246.3,77.5L246.3,77.5z">
   </path>
   <path class="st4" d="M244.1,51.2L244.1,51.2l-4.4-25.3l-4.4-25.2c-0.7,0.1-1.4,0.3-2.1,0.4l5,28.6l6,22.3
			C244.2,51.8,244.2,51.5,244.1,51.2L244.1,51.2z">
   </path>
   <path class="st4" d="M248.3,76.2l-0.5-2.3v0h-2v0l0.5,3.6l2.9,21.3c0.7-0.1,1.4-0.2,2.2-0.3L248.3,76.2L248.3,76.2z">
   </path>
   <path class="st5" d="M250.6,76.5l-0.9-2.6v0h-2v0l0.5,2.3l4.9,22c0.7-0.1,1.4-0.3,2.1-0.5L250.6,76.5L250.6,76.5z">
   </path>
   <path class="st5" d="M244.2,52l-6-22.3l-7.5-28c-0.7,0.2-1.4,0.4-2.1,0.6l8.6,31.8l7.3,19.2C244.3,52.9,244.3,52.5,244.2,52
			L244.2,52z">
   </path>
   <path class="st6" d="M244.4,53.4l-7.3-19.2L225.5,3.4c-0.7,0.3-1.4,0.5-2,0.8L236.6,39l8.2,16.2C244.6,54.6,244.5,54,244.4,53.4z">
   </path>
   <path class="st6" d="M253.1,77.2l-1.4-3.3v0h-2v0l0.9,2.6l6.7,20.7c0.7-0.2,1.4-0.4,2.1-0.6L253.1,77.2L253.1,77.2z">
   </path>
   <path class="st7" d="M244.8,55.2L236.6,39L220,6c-0.6,0.3-1.3,0.7-1.9,1.1l17.5,34.7l9.7,15C245.1,56.3,244.9,55.8,244.8,55.2
			L244.8,55.2z">
   </path>
   <path class="st7" d="M255.4,77l-1.7-3.1l0,0l0,0h-2l0,0l1.4,3.3l7.9,18.8c0.7-0.3,1.4-0.5,2-0.8L255.4,77L255.4,77z">
   </path>
   <path class="st8" d="M245.3,56.8l-9.7-15L214.7,9.3c-0.6,0.4-1.2,0.9-1.7,1.3l24.7,38.3l8.8,10.4C246,58.5,245.6,57.7,245.3,56.8
			L245.3,56.8z">
   </path>
   <path class="st8" d="M257.8,76.9l-2.2-3l0,0h-2l0,0l0,0l1.7,3.1l9.5,17.3c0.7-0.3,1.3-0.6,2-1L257.8,76.9L257.8,76.9z">
   </path>
   <path class="st9" d="M260.7,77.2l-3.1-3.3l0,0h-2l0,0l2.2,3l11,15.3c0.6-0.4,1.2-0.8,1.9-1.2L260.7,77.2L260.7,77.2z">
   </path>
   <path class="st9" d="M246.4,59.3l-8.8-10.4l-28.9-34.5c-0.5,0.5-1,1-1.5,1.6L237,51.6l10.5,9.8C247.1,60.8,246.7,60.1,246.4,59.3z
			">
   </path>
   <path class="st10" d="M264.3,77.9l-4.7-4l0,0l0,0h-2l0,0l3.1,3.3l11.8,12.6c0.6-0.4,1.2-0.9,1.8-1.3L264.3,77.9L264.3,77.9z">
   </path>
   <path class="st10" d="M247.5,61.4L237,51.6l-33.5-31.2c-0.4,0.6-0.9,1.2-1.3,1.8l36.8,34.4l10.2,7.3
			C248.7,63.1,248.1,62.3,247.5,61.4L247.5,61.4z">
   </path>
   <path class="st11" d="M267,77.3l-5.4-3.4l0,0h-2l0,0l0,0l4.7,4l11.3,9.5c0.6-0.5,1.1-1,1.6-1.5L267,77.3L267,77.3z">
   </path>
   <path class="st11" d="M249.3,63.8l-10.2-7.3L199,27.9c-0.3,0.7-0.6,1.3-0.9,2l42.8,30.5l10.7,5.6C250.7,65.4,250,64.6,249.3,63.8
			L249.3,63.8z">
   </path>
   <path class="st12" d="M251.5,66.1l-10.7-5.6l-45.1-23.8c-0.2,0.7-0.4,1.4-0.5,2.2l45.4,23.9l12.9,4.9
			C252.8,67.2,252.2,66.6,251.5,66.1L251.5,66.1z">
   </path>
   <path class="st12" d="M270.7,77l-6.9-3.1l-0.1,0h-2.1l0,0l5.4,3.4l11.7,7.3c0.5-0.5,1-1.1,1.5-1.6L270.7,77L270.7,77z">
   </path>
   <path class="st13" d="M275.2,76.6l-9.6-2.8l0,0l-0.1,0h-1.8l0.1,0l6.9,3.1l10.6,4.8c0.5-0.6,1-1.2,1.4-1.8L275.2,76.6L275.2,76.6z
			">
   </path>
   <path class="st13" d="M253.5,67.7l-12.9-4.9l-46.4-17.5c-0.1,0.8-0.1,1.5-0.1,2.3l47.8,18l0.8,0.3l13.5,3.4
			C255.3,68.8,254.4,68.3,253.5,67.7L253.5,67.7z">
   </path>
   <path class="st14" d="M278.6,75.3l-9.8-1.3l-1.3-0.2l-0.2,0h-1.7l0.1,0l0,0l9.6,2.8l8.3,2.4c0.5-0.6,0.9-1.2,1.3-1.9L278.6,75.3
			L278.6,75.3z">
   </path>
   <path class="st14" d="M256.3,69.3l-13.5-3.4l-0.8-0.2l-47.7-11.9c0.1,0.8,0.1,1.5,0.2,2.3l47.1,11.8l17.4,2.6
			C258,70.1,257.1,69.7,256.3,69.3L256.3,69.3z">
   </path>
   <path class="st15" d="M258.9,70.4l-17.4-2.6l-46.1-6.8c0.2,0.8,0.4,1.5,0.6,2.3l41,6l24.1,1.7C260.4,70.9,259.7,70.7,258.9,70.4
			L258.9,70.4z">
   </path>
   <path class="st15" d="M270.2,73.9l-0.5,0h-2.5l0.2,0l1.3,0.2l9.8,1.3l6.8,0.9c0.3-0.4,0.5-0.8,0.8-1.2L270.2,73.9L270.2,73.9z">
   </path>
   <path class="st16" d="M286.8,73.8h-17.2l0.5,0.1l16,1.1l0,0c0,0,0,0,0,0c0.2-0.3,0.3-0.5,0.5-0.8C286.7,74.1,286.8,74,286.8,73.8
			L286.8,73.8C286.8,73.9,286.8,73.8,286.8,73.8L286.8,73.8z">
   </path>
   <path class="st16" d="M266.2,71.7c-1.7,0-3.4-0.2-5-0.6l-24.1-1.7l-39.9-2.8c0.3,0.8,0.6,1.5,0.9,2.2l40.3,2.8L266.2,71.7
			L266.2,71.7z">
   </path>
   <path class="st17" d="M238.3,71.7l-39,0c0.4,0.7,0.8,1.5,1.2,2.2l86.4-0.1l0,0c0-0.1,0.1-0.2,0.1-0.2c0.1-0.2,0.2-0.5,0.4-0.7
			c0.2-0.4,0.4-0.8,0.6-1.2L238.3,71.7L238.3,71.7z">
   </path>
  </g>
  <g>
   <path d="M227.6,128.4h4.3v0.6h-1.8v4.8h-0.7v-4.8h-1.8L227.6,128.4L227.6,128.4z">
   </path>
   <path d="M238.3,128.4v5.4h-0.7v-4l0-0.9l-0.3,0.9l-1.5,4h-0.6l-1.5-4l-0.3-0.9l0,0.9v4h-0.7v-5.4h1l1.6,4.3l0.2,0.5l0.2-0.5
			l1.7-4.3L238.3,128.4L238.3,128.4z">
   </path>
  </g>
 </g>
</svg>