<?xml version="1.0" encoding="utf-8"?>
<!-- Generator: Adobe Illustrator 19.2.1, SVG Export Plug-In . SVG Version: 6.00 Build 0)  -->
<svg version="1.1" id="layer" xmlns="http://www.w3.org/2000/svg" xmlns:xlink="http://www.w3.org/1999/xlink" x="0px" y="0px"
	 viewBox="0 0 652 652" style="enable-background:new 0 0 652 652;" xml:space="preserve">
<style type="text/css">
	.st0{fill:#1F1F30;}
</style>
<path class="st0" d="M98.3,363.1c1-5.9-1.1-12-5.6-16c-3.2-3-7.5-4.7-11.9-4.7c-2.6,0-5.1-0.6-7.4-1.8h0c-3-1.6-5.4-4.1-7-7.1v0
	c0.9-2.3,1.3-4.8,1.3-7.5c0,7.3,5.8,13.2,13,13.2H81c7.1-0.1,12.8-6,12.8-13.2c0-2.6,0.5-5.1,1.3-7.5v0c1.4-3.7,3.8-7,7-9.4
	c3.9-3,8.7-4.4,13.5-4.2c-3.4-5.8-8.2-10.7-14-14.2c0,0.3,0,0.7,0,1c0,4.6-1.5,9-4.2,12.7c-0.8-0.7-1.7-1.3-2.6-1.8
	c2.4-3.1,3.6-6.9,3.6-10.8c0-2.3-0.4-4.6-1.3-6.8c-2.6-6.4-8.7-10.9-15.9-11.1l-0.5,0h-0.5c-4.4,0-8.7,0.6-12.9,1.8
	c-17.7,4.8-31.6,18.9-36.3,36.8c-3,3.7-4.8,8.2-4.9,13c0.3-30.1,24.3-54.5,54.1-54.8h0.6c0.3,0,0.5,0,0.8,0
	c29.6,0.5,53.5,24.7,53.8,54.8c0,0.2,0,0.4,0,0.6s0,0.4,0,0.6c-0.1,4.8-1.8,9.3-4.9,13c-2.8,3.4-6.7,5.9-11,6.9
	c-1.6,0.4-3.3,0.6-4.9,0.6c-4.5,0-8.9-1.5-12.5-4.2c-1.3,1.8-2.9,3.3-4.6,4.7l0,0c2.9,3.9,4.4,8.8,4.1,13.7
	c5.8-3.5,10.6-8.4,14-14.2c1.3-0.1,2.6-0.3,3.9-0.6c-4.1,8-10.6,14.5-18.5,18.7c-6.2,3.3-13.2,5-20.2,5c-3.1,0-6-1.5-7.8-3.9
	c-1.3-1.8-2-3.9-2-6.1c0-3,1.4-5.8,3.5-7.6c2,0.5,4.2,0.8,6.4,0.8c-3.7,0-6.8,3.1-6.8,6.9c0,3.8,3,6.9,6.8,6.9c0,0,0.1,0,0.1,0
	c3.7,0,6.8-3.1,6.8-6.9c0-3.8-3-6.9-6.8-6.9c-5,0-9.8-1.4-14.1-4c-0.9-0.6-1.8-1.2-2.6-1.8c-1.8-1.4-3.3-3-4.7-4.7
	c0.8-0.6,1.6-1.3,2.4-2.1c1.9,2.5,4.3,4.7,7.1,6.3c3.6,2.1,7.7,3.2,11.9,3.2c2.4,0,4.7,0.9,6.4,2.4c2.1,1.8,3.5,4.6,3.5,7.6
	c0,2.2-0.7,4.3-2,6.1c3.3-0.7,6.5-1.7,9.5-3.2L98.3,363.1L98.3,363.1z M120.6,318.1c-0.6-3.4-1.7-6.6-3.2-9.7
	c-4.8-0.8-9.7,0.5-13.5,3.4c-4.4,3.4-7,8.7-7,14.3c0,2.7-0.6,5.2-1.8,7.5v0c-1.5,3-4,5.5-6.9,7.1l0,0h0c2.7,1,5.1,2.6,7.2,4.6
	c2.5-1.9,4.6-4.4,6.1-7.1c2.1-3.7,3.2-7.8,3.2-12.1c0-2.5,0.9-4.7,2.4-6.5c1.9-2.2,4.6-3.5,7.5-3.5
	C116.8,316.1,118.9,316.8,120.6,318.1z M121.3,325.8c-0.1-3.6-3.1-6.5-6.8-6.6c-3.8,0-6.8,3.1-6.8,6.8c0,0.1,0,0.2,0,0.2
	c0.1,3.7,3.1,6.6,6.8,6.6c3.8,0,6.8-3.1,6.8-6.8C121.3,326,121.3,325.9,121.3,325.8z M107.1,332.6c-0.7,2.7-1.7,5.4-3.2,7.8
	c3.8,3,8.7,4.2,13.5,3.4c1.3-0.2,2.6-0.6,3.9-1.1c6.5-2.7,10.8-9,11-16.1v-0.9c0-4.4-0.6-8.8-1.8-13.1
	c-4.7-17.8-18.6-31.9-36.2-36.8c3.4,2.9,5.7,6.8,6.8,11.1l0,0.1c9.2,4.9,16.3,12.9,20.2,22.6c2.1,5.1,3.2,10.7,3.2,16.6
	c0,3.2-1.5,6.1-3.9,7.9c-1.7,1.3-3.8,2.1-6,2.1C111.6,336.1,108.9,334.7,107.1,332.6z M80,381.4c-29.6-0.5-53.5-24.8-53.8-54.8
	l0-0.6l0-0.6c0.1-4.8,1.8-9.3,4.9-13c2.8-3.4,6.7-5.8,11-6.9c1.6-0.4,3.3-0.6,4.9-0.6c4.5,0,8.9,1.5,12.5,4.2
	c1.3-1.8,2.9-3.3,4.6-4.7c-2.9-3.9-4.4-8.8-4.2-13.7c-5.8,3.5-10.6,8.4-14,14.2c-1.3,0.1-2.6,0.3-3.9,0.6c4.1-8,10.6-14.5,18.5-18.7
	c6.2-3.3,13.2-5,20.2-5c3.1,0,6,1.5,7.8,3.9c1.3,1.7,2,3.8,2,6.1c0,3.1-1.4,5.8-3.5,7.6c-2.1-0.5-4.2-0.8-6.4-0.8
	c3.7,0,6.8-3.1,6.8-6.9c0-3.8-3-6.9-6.8-6.9c0,0-0.1,0-0.1,0c-3.7,0-6.8,3.1-6.8,6.9c0,3.8,3,6.9,6.8,6.9c5,0,9.8,1.4,14.1,4
	c0.9,0.6,1.8,1.2,2.6,1.8c1.7,1.4,3.3,3,4.7,4.7c-0.8,0.6-1.6,1.3-2.4,2.1c-1.9-2.5-4.3-4.7-7.1-6.3c-3.6-2.1-7.7-3.2-11.9-3.2
	c-2.3,0-4.6-0.9-6.4-2.4c-2.2-1.9-3.5-4.7-3.5-7.6c0-2.3,0.8-4.4,2-6.1c-3.3,0.7-6.6,1.8-9.6,3.2c-1,5.9,1.1,12,5.6,16
	c3.2,3,7.5,4.7,11.9,4.7c2.6,0,5.1,0.6,7.4,1.8h0c3,1.6,5.4,4.1,7,7.1c-0.9,2.4-1.4,4.9-1.3,7.5c0-7.3-5.8-13.2-13-13.2h-0.1
	c-7.1,0.1-12.8,6-12.8,13.2c0,2.6-0.5,5.1-1.3,7.5v0c-1.4,3.7-3.8,7-7,9.4c-3.9,3-8.7,4.4-13.5,4.2c3.4,5.8,8.2,10.7,14,14.2
	c-0.2-4.9,1.2-9.7,4.1-13.6c0.8,0.7,1.7,1.3,2.6,1.8c-2.4,3.1-3.6,6.9-3.6,10.8c0,2.3,0.4,4.6,1.3,6.8c2.6,6.4,8.7,10.9,15.9,11.1
	h0.9c4.4,0,8.7-0.6,12.9-1.8c17.7-4.8,31.6-18.9,36.3-36.8c3-3.7,4.8-8.2,4.9-13c-0.3,30.1-24.3,54.5-54.1,54.8l-0.6,0h-0.6
	C80.2,381.4,80,381.4,80,381.4z M67.3,376.4c-3.4-2.9-5.7-6.8-6.8-11.1c0,0,0,0,0-0.1c-9.2-4.9-16.3-12.9-20.2-22.6
	c-2.1-5.3-3.2-10.9-3.2-16.6c0-3.2,1.5-6.1,3.9-7.9c1.7-1.3,3.7-2.1,6-2.1c3,0,5.7,1.4,7.5,3.5c0.7-2.8,1.7-5.4,3.2-7.8
	c-3.8-3-8.7-4.2-13.5-3.4c-1.4,0.2-2.6,0.6-3.9,1.1c-6.5,2.7-10.8,9-11,16.1c0,0.2,0,0.3,0,0.5l0,0.5c0,4.4,0.6,8.8,1.8,13.1
	C35.9,357.5,49.7,371.6,67.3,376.4z M44.2,343.8c4.8,0.8,9.7-0.5,13.5-3.4c4.4-3.4,7-8.7,7-14.3c0-2.7,0.6-5.2,1.8-7.5v0
	c1.5-3,4-5.5,6.9-7.1l-0.1,0c-2.7-1-5.1-2.6-7.2-4.6c-2.5,1.9-4.6,4.4-6.1,7.1c-2.1,3.7-3.2,7.8-3.2,12.1c0,2.5-0.9,4.7-2.4,6.5
	c-1.9,2.2-4.6,3.5-7.5,3.5c-2.3,0-4.3-0.8-6-2.1C41.7,337.4,42.8,340.7,44.2,343.8z M40.3,326.4c0.2,3.6,3.1,6.6,6.8,6.6
	c3.8,0,6.8-3.1,6.8-6.8c0-0.1,0-0.2,0-0.2c-0.1-3.7-3.1-6.6-6.8-6.6c-3.8,0-6.8,3.1-6.8,6.9C40.3,326.2,40.3,326.3,40.3,326.4
	L40.3,326.4z M179.3,297.1h15l14,38.2h0.2l13.8-38.2h15v53.8h-9.5v-43.2h-0.1l-16.3,43.2h-6.7l-16.1-43.2h-0.1v43.2h-9.1
	L179.3,297.1L179.3,297.1z M263.5,297.1h35.6v8.4h-26v13.7h24.7v8H273v15.2h27.4v8.5h-37L263.5,297.1L263.5,297.1z M341.5,320.3
	c1.4,0,2.7-0.1,4.1-0.3c1.3-0.2,2.5-0.6,3.7-1.1c1.1-0.6,2-1.4,2.7-2.4c0.7-1,1.1-2.4,1.1-4c0-1.5-0.3-2.7-1-3.6
	c-0.7-0.9-1.5-1.7-2.5-2.2c-1.1-0.6-2.2-1-3.5-1.1c-1.2-0.2-2.5-0.3-3.8-0.3h-8.7v15.1C333.7,320.3,341.5,320.3,341.5,320.3z
	 M324.1,297.1h18.7c2.5,0,5,0.3,7.4,0.8c2.3,0.5,4.4,1.4,6.3,2.6c1.8,1.2,3.4,2.9,4.4,4.8c1.1,2,1.7,4.4,1.7,7.2
	c0,3.9-1.1,7.1-3.3,9.5c-2.2,2.5-5.2,4.1-9,5l14.3,23.8h-11.5l-12.4-22.8h-7v22.8h-9.6L324.1,297.1L324.1,297.1z M425,309.7
	c-1.4-1.9-3.3-3.4-5.5-4.2c-2.1-0.9-4.4-1.3-6.7-1.3c-2.6,0-5.2,0.5-7.6,1.5c-2.2,1-4.2,2.4-5.9,4.2c-1.7,1.8-3,3.9-3.8,6.2
	c-0.9,2.5-1.4,5.1-1.3,7.7c0,2.9,0.4,5.6,1.3,8c0.9,2.4,2.1,4.5,3.7,6.3c1.6,1.7,3.5,3.1,5.7,4.1c2.2,1,4.7,1.4,7.5,1.4
	c2.9,0,5.4-0.6,7.7-1.7c2.1-1.1,4-2.6,5.4-4.5l7.7,5.4c-2.3,3-5.3,5.3-8.7,6.9c-3.4,1.6-7.5,2.5-12.1,2.5c-4.2,0-8.1-0.7-11.6-2.1
	c-3.4-1.3-6.5-3.3-9.1-5.8c-2.6-2.6-4.6-5.6-5.9-9c-1.4-3.5-2.1-7.3-2.1-11.5c0-4.3,0.7-8.2,2.2-11.7c1.5-3.5,3.5-6.4,6.1-8.8
	c2.7-2.5,5.8-4.4,9.2-5.6c5.4-2,11.3-2.5,16.9-1.5c1.9,0.3,3.7,0.8,5.4,1.5c1.7,0.7,3.3,1.5,4.9,2.5c1.5,1,2.8,2.2,3.9,3.6
	C432.3,304,425,309.7,425,309.7z M496.2,331.1c0,3.2-0.6,6.2-1.7,8.8c-1,2.5-2.6,4.8-4.6,6.6c-2,1.8-4.3,3.3-6.8,4.2
	c-2.7,1-5.7,1.5-8.6,1.5c-2.9,0-5.8-0.5-8.6-1.5c-2.5-0.9-4.9-2.4-6.9-4.2c-2-1.9-3.5-4.1-4.6-6.6c-1.1-2.6-1.6-5.5-1.6-8.8v-34h9.6
	v33.6c0,1.6,0.2,3.1,0.6,4.7c0.4,1.5,1.1,2.9,2,4.1c0.9,1.2,2.2,2.2,3.7,3c1.5,0.8,3.5,1.1,5.7,1.1c2.3,0,4.2-0.4,5.7-1.1
	c1.5-0.7,2.7-1.7,3.7-3c0.9-1.2,1.6-2.6,2-4.1c0.4-1.5,0.6-3.1,0.6-4.7v-33.6h9.6C496.2,297.1,496.2,331.1,496.2,331.1z
	 M539.3,320.3c1.4,0,2.7-0.1,4.1-0.3c1.4-0.2,2.6-0.6,3.7-1.1c1.1-0.6,2-1.4,2.7-2.4c0.7-1,1.1-2.4,1.1-4c0-1.5-0.3-2.7-1-3.6
	c-0.6-0.9-1.5-1.7-2.5-2.2c-1.1-0.6-2.2-1-3.5-1.1c-1.2-0.2-2.5-0.3-3.8-0.3h-8.7v15.1C531.5,320.3,539.3,320.3,539.3,320.3z
	 M521.9,297.1h18.7c2.5,0,5,0.3,7.4,0.8c2.3,0.5,4.4,1.4,6.3,2.6c1.8,1.2,3.3,2.8,4.4,4.8c1.1,2,1.7,4.4,1.7,7.2
	c0,3.9-1.1,7.1-3.3,9.5c-2.2,2.5-5.2,4.1-9,5l14.3,23.8h-11.5l-12.4-22.8h-7v22.8h-9.6C521.9,350.9,521.9,297.1,521.9,297.1z
	 M596.5,327.6l-20.2-30.4H588l13.5,22.6l13.7-22.6h11.1l-20.2,30.4v23.3h-9.6L596.5,327.6L596.5,327.6z"/>
</svg>
