<?xml version="1.0" encoding="UTF-8"?>
<svg id="logosandtypes_com" data-name="logosandtypes com" xmlns="http://www.w3.org/2000/svg" viewBox="0 0 150 150">
  <defs>
    <style>
      .cls-1 {
        fill: none;
      }

      .cls-2 {
        fill: #2687e5;
      }
    </style>
  </defs>
  <path id="Layer_3" data-name="Layer 3" class="cls-1" d="M0,0H150V150H0V0Z"/>
  <path class="cls-2" d="M30.63,59.66c0-35.15,24.19-49.04,45.7-49.04,22.98,0,44.63,13.77,44.63,46.91,0,35.41-24.19,48.91-45.7,48.91-22.98,0-44.63-14.7-44.63-46.77m64.95,.79c0-31.28-5.35-44.23-20.05-44.23-12.97,0-19.51,9.09-19.51,40.62s5.08,43.97,20.05,43.97c13.23,0,19.51-8.95,19.51-40.35"/>
  <path class="cls-2" d="M116.25,134.7l-10.64-14.12c-.88-1.09-2.21-1.72-3.61-1.69H49.6c-1.4-.03-2.73,.6-3.61,1.69l-10.64,14.12c-.33,.43-.51,.95-.52,1.49v2.16c0,.72,.59,1.3,1.31,1.3H115.46c.72,0,1.31-.58,1.31-1.31h0v-2.16c0-.54-.19-1.07-.52-1.49"/>
</svg>