<svg id="logosandtypes_com" xmlns="http://www.w3.org/2000/svg" viewBox="0 0 150 150"><path d="M0 0h150v150H0V0z" fill="none"/><linearGradient id="a" gradientUnits="userSpaceOnUse" x1="22.2105" y1="21.3498" x2="128.0983" y2="127.2376"><stop offset="0" stop-color="#464451"/><stop offset=".5" stop-color="#2b2735"/><stop offset="1" stop-color="#130b15"/></linearGradient><path d="M120.9 18.4H29.4c-5.6 0-10.2 4.6-10.2 10.2v91.5c0 5.6 4.6 10.2 10.2 10.2h91.5c5.6 0 10.2-4.6 10.2-10.2V28.5c0-5.6-4.6-10.1-10.2-10.1z" fill="url(#a)"/><linearGradient id="b" gradientUnits="userSpaceOnUse" x1="25.4646" y1="24.604" x2="124.8441" y2="123.9835"><stop offset="0" stop-color="#fefefe"/><stop offset="1" stop-color="#97949b"/></linearGradient><path d="M120.6 22.8H29.8c-3.4 0-6.1 2.7-6.1 6.1v90.8c0 3.4 2.7 6.1 6.1 6.1h90.8c3.4 0 6.1-2.7 6.1-6.1V28.9c-.1-3.4-2.8-6.1-6.1-6.1zm1.5 96.7c0 1-.8 1.7-1.7 1.7H30c-1 0-1.7-.8-1.7-1.7V29.1c0-1 .8-1.7 1.7-1.7h90.3c1 0 1.7.8 1.7 1.7v90.4z" fill="url(#b)"/><linearGradient id="c" gradientUnits="userSpaceOnUse" x1="47.7652" y1="42.7148" x2="102.5435" y2="97.4931"><stop offset="0" stop-color="#f2f2f2"/><stop offset="1" stop-color="#b6b6b6"/></linearGradient><path d="M84.1 104.9c15.5 0 21.8-8.7 21.8-19.2v-38c0-2.3-1.6-4.1-4.2-4.1H82v4.6c0 1.8 1.4 4.1 4.1 4.1h11.3v32.3c0 11.2-8.5 11.9-13.5 11.9H66.4c-5.1 0-13.5-.7-13.5-11.9V52.4h15.5v-4.6c0-1.8-1.4-4.1-4.1-4.1H48.7c-2.6 0-4.2 1.8-4.2 4.1v38c0 10.5 6.2 19.2 21.8 19.2h17.8z" fill="url(#c)"/></svg>